<!DOCTYPE svg PUBLIC "-//W3C//DTD SVG 1.1//EN" "http://www.w3.org/Graphics/SVG/1.1/DTD/svg11.dtd">
<svg version="1.1" id="Шар_1" xmlns="http://www.w3.org/2000/svg" xmlns:xlink="http://www.w3.org/1999/xlink" x="0px" y="0px"
	 width="100px" height="100px" viewBox="0 0 100 100" enable-background="new 0 0 100 100" xml:space="preserve">
<g>
	<path fill="#FFFFFF" d="M94,6.143v88.012H6.087V6.143H94 M100,0.143H0.087v100.012H100V0.143L100,0.143z"/>
	<path fill="#FFFFFF" d="M50.639,55.514c-0.744-0.744-1.8-1.176-3.024-1.176c-2.448,0-4.225,1.776-4.225,4.224
		s1.776,4.225,4.225,4.225c1.224,0,2.28-0.432,3.024-1.2l3.36,3.312c-1.632,1.632-3.888,2.664-6.384,2.664
		c-4.969,0-9.001-4.032-9.001-9.001c0-4.968,4.032-9,9.001-9c2.472,0,4.704,0.984,6.336,2.616L50.639,55.514z"/>
	<path fill="#FFFFFF" d="M67.039,67.563l-2.784-4.776h-2.928v4.776h-4.729V49.562h7.584c3.648,0,6.625,2.976,6.625,6.625
		c0,1.92-0.84,3.648-2.136,4.849l3.816,6.528h-5.448V67.563z M61.326,58.706h2.928c1.44,0,2.592-1.128,2.592-2.568
		c0-1.44-1.152-2.592-2.592-2.592h-2.928V58.706z"/>
	<path fill="#FFFFFF" d="M83.526,60.938v6.625h-4.681v-6.625l-6.576-11.377h5.448l3.457,6l3.48-6h5.449L83.526,60.938z"/>
	<path fill="#FFFFFF" d="M40.382,70.562h7.584c3.648,0,6.625,2.976,6.625,6.625c0,3.625-2.952,6.601-6.528,6.601h-2.952v4.776
		h-4.729V70.562z M45.11,79.706h2.928c1.44,0,2.592-1.128,2.592-2.568c0-1.44-1.152-2.592-2.592-2.592H45.11V79.706z"/>
	<path fill="#FFFFFF" d="M55.75,70.538h14.186v4.704H65.16v13.321h-4.729V75.242H55.75V70.538z"/>
	<path fill="#FFFFFF" d="M79.855,70.562c4.968,0,9.001,4.056,9.001,9.025c0,4.968-4.033,8.977-9.001,8.977s-8.977-4.008-8.977-8.977
		C70.878,74.618,74.887,70.562,79.855,70.562z M79.855,75.266c-2.352,0-4.272,1.92-4.272,4.296c0,2.353,1.92,4.296,4.272,4.296
		c2.376,0,4.296-1.944,4.296-4.296C84.151,77.186,82.231,75.266,79.855,75.266z"/>
</g>
</svg>
